PathFileType	4	(X/Y/Z)	walk-thru1-4-TP.trc
DataRate	CameraRate	NumFrames	NumMarkers	Units	OrigDataRate	OrigDataStartFrame	OrigNumFrames
120.00	120.00	       5	60	mm	120.00	65	       512
Frame#	Time	Top.Head			Front.Head			Rear.Head			Jaw			C7			R.Clavicle			L.Clavicle			R.Shoulder			L.Shoulder			R.Scapula			L.Scapula			R.Scap.Inf			R.Biceps.Lateral			R.Elbow			R.Elbow.Medial			R.Forearm			R.Ulna			R.Radius			R.Wrist			R.Thumb.M1			R.Thumb.M2			R.Thumb.M3			R.Finger3.M1			R.Finger3.M2			R.Finger3.M3			L.Biceps.Lateral			L.Elbow			L.Elbow.Medial			L.Forearm			L.Ulna			L.Radius			L.Wrist			L.Thumb.M1			L.Thumb.M2			L.Thumb.M3			L.Finger3.M1			L.Finger3.M2			L.Finger3.M3			V.Sacral			R.ASIS			L.ASIS			R.Thigh			R.Thigh.Front			R.Knee			R.Knee.Medial			R.Shank			R.Ankle			R.Ankle.Medial			R.Heel			R.Toe			R.MedFoot			L.Thigh			L.Knee			L.Knee.Medial			L.Shank			L.Ankle			L.Ankle.Medial			L.Heel			L.Toe			L.MedFoot			V_mid_ASIS			V_R_Knee_JC			V_L_Knee_JC			V_R_Elbow_JC			V_L_Elbow_JC			V_R_Ankle_JC			V_L_Ankle_JC			V_R_Wrist_JC			V_L_Wrist_JC			V_R_ScaTrpz_1stMC_JC			V_R_1stMC_1stPP_JC			V_R_1stPP_1stDP_JC			V_R_LunCap_3rdMC_JC			V_R_3rdMC_3rdPP_JC			V_R_3rdPP_3rdMP_JC			V_R_3rdMP_3rdDP_JC			V_L_ScaTrpz_1stMC_JC			V_L_1stMC_1stPP_JC			V_L_1stPP_1stDP_JC			V_L_LunCap_3rdMC_JC			V_L_3rdMC_3rdPP_JC			V_L_3rdPP_3rdMP_JC			V_L_3rdMP_3rdPP_JC			V_ROOT_JC			V_R_Hip_JC			V_L_Hip_JC			V_R_GlenHum_JC			V_L_GlenHum_JC			V_ForeHead_Ctr			V_Vertex			V_Sagit_Lambdoid_Suture			V_R_FrontoTemp			V_L_FrontoTemporal			V_R_ParietalOccip			V_L_ParietalOcciptal			V_R_Temporal			V_L_Temporal			V_mid_FrontRearHead			V_mid_RLGlenHumCtrs			V_C7_vert			V_C1_vert			V_Mid_Hip			
		X1	Y1	Z1	X2	Y2	Z2	X3	Y3	Z3	X4	Y4	Z4	X5	Y5	Z5	X6	Y6	Z6	X7	Y7	Z7	X8	Y8	Z8	X9	Y9	Z9	X10	Y10	Z10	X11	Y11	Z11	X12	Y12	Z12	X13	Y13	Z13	X14	Y14	Z14	X15	Y15	Z15	X16	Y16	Z16	X17	Y17	Z17	X18	Y18	Z18	X19	Y19	Z19	X20	Y20	Z20	X21	Y21	Z21	X22	Y22	Z22	X23	Y23	Z23	X24	Y24	Z24	X25	Y25	Z25	X26	Y26	Z26	X27	Y27	Z27	X28	Y28	Z28	X29	Y29	Z29	X30	Y30	Z30	X31	Y31	Z31	X32	Y32	Z32	X33	Y33	Z33	X34	Y34	Z34	X35	Y35	Z35	X36	Y36	Z36	X37	Y37	Z37	X38	Y38	Z38	X39	Y39	Z39	X40	Y40	Z40	X41	Y41	Z41	X42	Y42	Z42	X43	Y43	Z43	X44	Y44	Z44	X45	Y45	Z45	X46	Y46	Z46	X47	Y47	Z47	X48	Y48	Z48	X49	Y49	Z49	X50	Y50	Z50	X51	Y51	Z51	X52	Y52	Z52	X53	Y53	Z53	X54	Y54	Z54	X55	Y55	Z55	X56	Y56	Z56	X57	Y57	Z57	X58	Y58	Z58	X59	Y59	Z59	X60	Y60	Z60	

65	0.533	-876.56488	-51.34991	1792.62659	-777.20264	-42.46883	1678.07178	-1003.10162	-52.37613	1697.20654	-824.76361	-43.56519	1513.52100	-1020.40326	-47.69313	1559.64514	-923.23645	-161.63728	1462.62671	-916.32605	65.78904	1466.84131	-962.25055	-250.35701	1458.57532	-983.75067	160.25562	1478.84802	-1071.45691	-136.27217	1477.18420	-1073.09753	33.54511	1483.04321	-1121.70178	-145.13394	1391.69299	-1015.03558	-310.58682	1283.80371	-1053.51233	-331.68625	1131.47742	-1074.84546	-243.37166	1113.49817	-971.54462	-278.43329	1015.47571	-1000.38678	-320.08875	915.15436	-943.00104	-255.82155	885.52618	-943.08252	-295.87314	839.12323	-931.44635	-251.10786	853.24060	-898.07581	-217.26534	810.33459	-861.23676	-212.94128	782.51337	-899.18823	-296.82748	769.77631	-888.11212	-254.42073	719.05573	-905.54614	-209.82654	695.13660	-1018.57288	225.50456	1333.92029	-1048.46924	272.24390	1159.79517	-1095.18652	205.38873	1147.31934	-991.11139	245.05945	1049.79456	-1048.65869	270.09238	965.11743	-983.54639	216.31384	909.16992	-996.58679	250.96457	852.34149	-983.02039	202.79955	842.72443	-992.53796	169.37688	793.15424	-993.49323	174.59308	730.73859	-988.51410	266.44424	777.11914	-1006.04083	249.02921	721.43011	-1031.82080	228.78241	679.63434	-1122.52332	-38.65585	1084.06323	-1030.19214	-228.84810	1029.68359	-1024.93896	149.59857	1020.16632	-926.60095	-175.47650	628.37787	-845.40228	-84.13062	569.28174	-889.43933	-143.60571	503.62787	-902.88428	-32.84526	507.45328	-885.08728	-96.97561	321.54312	-987.08075	-129.77713	69.30242	-955.88934	-32.16121	89.92130	-1044.13635	-70.95938	42.62374	-801.56494	-90.57855	45.96615	-875.32532	-49.92280	67.18851	-950.72913	157.37947	639.34229	-924.72876	150.17802	494.16882	-906.68427	30.28449	488.68097	-1034.55371	92.04306	330.07434	-1267.25562	102.27798	211.53796	-1213.62000	11.77943	217.50250	-1306.96753	40.43999	243.71300	-1180.45764	44.60882	62.53363	-1192.71545	20.09450	116.33092																																																																																																																															
66	0.542	-868.80719	-52.84518	1792.47607	-770.70099	-42.81852	1677.93567	-997.99249	-51.62769	1696.61987	-819.12347	-44.93623	1513.86426	-1015.58386	-46.19125	1561.10315	-918.32050	-161.32928	1463.03821	-911.63745	65.65950	1467.38831	-957.65137	-250.41415	1458.62415	-978.07214	160.71404	1478.86047	-1066.09534	-135.93332	1478.12231	-1068.13684	32.30962	1483.06848	-1116.85571	-145.64842	1392.39014	-1006.92401	-312.65210	1283.55005	-1045.94592	-331.37610	1132.30896	-1068.80664	-243.51062	1113.85303	-964.30377	-279.75031	1015.49786	-993.11163	-321.68649	915.41132	-935.78125	-255.88026	886.68585	-935.53351	-296.33124	840.14624	-924.02142	-250.73167	852.94879	-890.90002	-217.35211	810.21118	-854.31799	-213.05763	782.75214	-892.49384	-297.32440	769.69714	-879.20996	-256.87280	718.20428	-898.08136	-211.86748	695.32965	-1013.50464	225.09850	1333.26697	-1043.18140	269.17859	1160.36450	-1089.46509	205.13719	1146.41895	-985.78430	244.35054	1050.13892	-1042.69409	268.21030	965.29053	-979.05389	217.49054	908.00378	-991.43933	250.29480	852.18445	-977.15851	204.53058	843.85309	-986.05969	169.54926	792.57874	-989.18915	174.99364	731.96002	-982.43262	266.89066	776.05841	-1000.37915	246.24973	721.21777	-1028.68811	229.45245	680.42871	-1117.01367	-39.37797	1084.58545	-1023.12646	-228.11848	1030.81580	-1020.62329	147.30943	1021.69507	-923.69678	-175.33795	628.56610	-842.09729	-84.43154	568.66095	-887.29651	-143.47632	503.57986	-898.68756	-32.11708	506.88910	-882.54248	-97.69473	321.51437	-987.05969	-129.59801	69.40756	-955.69025	-32.04548	89.95837	-1044.29163	-70.94559	43.12722	-801.56494	-90.57855	45.96615	-875.16248	-49.88925	67.13876	-938.45435	157.59215	641.24432	-912.31012	149.92464	496.48450	-894.50916	30.38416	491.27399	-1022.70184	90.77658	331.74469	-1253.85205	102.93257	212.41975	-1199.27039	12.11704	218.23526	-1291.85730	40.11723	243.65691	-1165.18823	47.42930	64.26872	-1176.08728	24.13160	116.78021																																																																																																																															
67	0.550	-862.70599	-52.96259	1793.38245	-766.90698	-40.85318	1678.94507	-991.74408	-52.63201	1697.50281	-814.84058	-45.66186	1513.80164	-1010.03894	-47.71250	1561.95422	-912.62201	-161.74547	1463.54285	-906.66998	64.71058	1467.85022	-951.40387	-250.42505	1459.32922	-971.77655	159.37450	1478.71753	-1060.73511	-137.57166	1478.41370	-1062.75684	31.95519	1483.93176	-1110.77197	-146.36414	1392.85474	-1000.05444	-312.55847	1283.45105	-1039.26709	-332.47647	1133.01685	-1062.31580	-245.15646	1114.16577	-956.64307	-278.43771	1015.91968	-984.93884	-322.29962	916.32153	-928.90479	-257.30466	886.95184	-927.67389	-297.93832	840.48907	-917.87610	-250.32625	854.15613	-883.32202	-217.44057	809.84613	-847.73846	-212.27629	782.90088	-884.78271	-297.92007	770.74847	-870.31183	-256.96744	718.75848	-890.65698	-212.13855	694.95642	-1007.55377	224.50037	1333.89880	-1037.91296	268.56323	1159.83154	-1084.17078	204.37283	1147.11694	-980.65656	244.16650	1051.41895	-1038.51355	268.36719	964.99500	-973.64886	215.12846	909.54791	-986.09167	250.46884	853.49792	-973.30847	203.25293	844.75708	-981.99927	168.35837	793.86035	-983.02094	174.05611	731.48761	-977.75690	265.82669	776.21887	-995.00525	246.85620	721.46173	-1023.63086	229.00926	680.54346	-1111.48755	-39.50232	1084.71985	-1016.23834	-228.39407	1031.60059	-1016.09613	147.06985	1022.61292	-919.99774	-176.83095	627.97766	-839.36218	-85.21684	567.85474	-884.95459	-143.09933	503.15012	-897.94647	-32.11618	506.91702	-881.22375	-98.96052	321.63687	-987.81177	-130.02423	69.47506	-955.51160	-32.41489	89.95615	-1044.60535	-71.06503	43.65011	-801.41064	-90.28758	45.85631	-874.92096	-49.99284	66.89373	-929.52631	156.51213	643.97906	-900.96429	147.73994	497.64490	-886.56372	28.17456	492.17047	-1010.37378	91.13794	333.27286	-1241.80664	102.70844	212.28850	-1185.52588	13.56464	216.45302	-1281.65503	39.90407	242.86261	-1148.57886	52.08608	65.28127	-1161.17200	25.86136	117.49170																																																																																																																															
68	0.558	-857.25897	-51.19311	1793.43347	-759.82019	-41.19389	1678.24597	-986.36108	-51.51892	1698.36084	-809.99585	-45.32704	1513.57434	-1004.10181	-47.81396	1563.03210	-906.90631	-161.44865	1464.18286	-901.00427	65.47952	1467.93396	-945.33899	-249.93323	1460.58362	-969.38721	160.20857	1478.72607	-1055.27295	-136.93893	1478.77576	-1056.92969	32.45121	1484.44531	-1105.12939	-146.67299	1392.45374	-994.57526	-313.60483	1283.84070	-1032.02844	-333.72461	1132.48706	-1054.01038	-246.63770	1114.04150	-950.26819	-280.00061	1016.63684	-977.77325	-322.76520	916.74292	-920.66705	-256.75732	887.22443	-920.08606	-298.62445	840.45911	-909.69171	-252.03748	854.31403	-877.60480	-219.11325	810.50311	-840.03705	-212.94673	783.13232	-877.81805	-298.32278	771.28625	-865.78534	-256.79471	718.97693	-884.26636	-212.99736	695.28009	-1003.08649	225.13683	1334.06775	-1031.94458	268.23505	1159.92810	-1080.55103	204.58290	1147.83411	-974.41333	244.25795	1051.60376	-1033.38403	268.02383	965.58160	-969.63586	212.76987	909.41284	-981.73401	249.72810	853.44873	-968.43231	201.67462	844.49609	-977.39209	166.66223	794.72815	-978.54437	173.54893	731.07391	-972.67029	264.40027	776.28748	-989.59662	247.91556	721.58685	-1018.38324	227.03029	680.75989	-1105.50256	-39.96240	1085.54956	-1014.35291	-229.26965	1031.18103	-1008.22046	147.63910	1022.78180	-917.45007	-176.35117	627.76978	-837.30652	-85.10900	566.97162	-882.68341	-143.29181	502.93747	-892.97839	-32.84854	506.89215	-880.34790	-98.69698	321.52863	-986.65698	-129.74059	69.49259	-955.43463	-32.32345	90.02330	-1044.94666	-70.75665	43.70460	-801.41052	-90.32190	45.76292	-875.02698	-49.90772	66.91345	-917.94409	156.38222	644.67181	-890.24634	147.60948	500.10532	-872.32782	28.67253	494.81281	-998.06812	89.30561	333.99796	-1229.10828	104.15525	211.74651	-1172.15991	14.09034	216.50757	-1267.41309	40.04725	240.71413	-1131.64575	57.23423	66.67194	-1145.07031	28.24631	118.74207																																																																																																																															
69	0.567	-853.02692	-50.06892	1794.57007	-754.51672	-40.58672	1679.27283	-981.28748	-53.09241	1699.24243	-803.83337	-45.05492	1513.90039	-999.11127	-48.24666	1563.75708	-902.27246	-162.76292	1464.81458	-896.49017	65.53062	1468.57837	-939.95050	-251.08282	1460.44885	-963.48236	160.00616	1479.19763	-1050.17786	-137.46260	1479.72192	-1051.02808	31.32176	1485.33191	-1099.26245	-147.68613	1393.34583	-987.94318	-313.30615	1284.58020	-1024.43555	-333.36557	1132.35376	-1048.90417	-246.30257	1114.00928	-941.87177	-278.33801	1017.52161	-970.82098	-324.55383	917.60657	-913.57361	-258.44223	887.72797	-914.42456	-297.92569	840.52460	-902.77045	-251.90128	854.75323	-869.64697	-219.34024	810.21979	-832.81409	-214.47112	783.14740	-869.92126	-299.36090	772.29150	-858.21735	-259.37167	719.01160	-876.29303	-214.52388	695.42419	-999.08649	224.93394	1334.74426	-1027.99158	268.71243	1160.59033	-1074.71033	203.31006	1148.05408	-970.47229	242.20276	1051.91431	-1028.42700	266.42258	965.92029	-965.45856	213.44876	910.18414	-976.91608	248.85498	854.16968	-961.41534	200.89825	844.77863	-972.19006	166.69200	794.84515	-974.61530	173.65318	733.47565	-967.89594	264.50165	777.43555	-985.85040	246.49750	721.79755	-1013.51208	227.28084	681.33734	-1100.43689	-39.91286	1085.94116	-1005.19989	-228.12347	1031.32690	-999.79688	147.99329	1024.46606	-914.04883	-176.92052	627.56421	-834.41711	-86.21785	566.54926	-880.82513	-144.30099	502.56348	-890.76965	-32.11893	507.99057	-879.51514	-99.76656	321.40851	-986.41656	-129.72377	69.47652	-955.12793	-31.40833	90.28066	-1044.88660	-70.22918	43.43862	-801.59143	-90.67310	45.82418	-875.16248	-49.88925	67.13876	-908.15210	155.52826	646.86444	-877.74304	146.54111	502.96967	-863.13507	26.04103	496.06799	-985.07745	89.55444	335.90497	-1215.61719	104.40955	210.23372	-1158.63269	14.31144	216.13406	-1255.48340	39.98632	238.01892	-1114.19751	58.80006	67.06760	-1129.82520	31.65315	118.51794																																																																																																																															
